<?xml version="1.0" standalone="no"?>
<!DOCTYPE svg PUBLIC "-//W3C//DTD SVG 20010904//EN"
 "http://www.w3.org/TR/2001/REC-SVG-20010904/DTD/svg10.dtd">
<svg version="1.0" xmlns="http://www.w3.org/2000/svg"
 width="1280.000000pt" height="816.000000pt" viewBox="0 0 1280.000000 816.000000"
 preserveAspectRatio="xMidYMid meet">
<metadata>
Created by potrace 1.15, written by Peter Selinger 2001-2017
</metadata>
<g transform="translate(0.000000,816.000000) scale(0.100000,-0.100000)"
fill="#000000" stroke="none">
<path d="M10590 8050 l0 -110 -110 0 -110 0 0 -110 0 -110 -220 0 -220 0 0
-110 0 -110 -110 0 -110 0 0 -110 0 -110 -110 0 -110 0 0 -110 0 -110 -220 0
-220 0 0 -110 0 -110 -110 0 -110 0 0 -110 0 -110 -552 -2 -553 -3 -3 -107 -3
-108 -104 0 c-58 -1 -157 -1 -220 -1 -63 0 -164 0 -225 1 l-110 0 0 110 0 110
-1104 0 -1105 0 1 108 0 107 -111 3 -111 3 0 109 0 110 -770 0 -770 0 0 110 0
110 -220 0 -220 0 0 110 0 110 -552 -2 -553 -3 0 -108 0 -107 -442 0 -443 0 0
-110 0 -110 -330 0 -330 0 0 -110 0 -110 330 0 330 0 0 -110 0 -110 330 0 330
0 0 -110 0 -110 223 -2 222 -3 3 -110 3 -110 307 3 c169 1 317 0 330 -3 21 -5
22 -10 22 -115 l0 -110 223 0 c122 1 270 1 330 1 l107 -1 0 -110 0 -110 330 0
329 0 3 -107 3 -108 107 -3 107 -3 3 -107 3 -107 217 -3 217 -2 3 -108 3 -107
220 -5 220 -5 0 -105 0 -105 113 -3 112 -3 0 -109 0 -110 110 0 110 0 0 -110
0 -110 110 0 110 0 0 -110 0 -110 110 0 110 0 0 -110 0 -110 110 0 110 0 0
-110 0 -110 110 0 110 0 0 -220 0 -220 330 0 330 0 0 -110 0 -110 -110 0 -110
0 0 -110 0 -110 -220 0 -220 0 0 -330 0 -330 -110 0 -110 0 0 -109 c0 -90 -3
-110 -16 -115 -9 -3 -58 -6 -109 -6 l-94 0 -3 -107 -3 -108 -107 -3 -107 -3
-3 -107 -3 -107 -107 -3 -108 -3 0 -219 0 -220 110 0 110 0 0 -550 0 -550 550
0 550 0 0 110 0 110 -110 0 -110 0 0 110 0 110 -220 0 -220 0 0 440 0 440 110
0 110 0 0 110 0 110 110 0 110 0 0 110 0 110 110 0 109 0 3 111 3 112 107 -2
107 -2 3 113 3 113 108 3 107 3 0 109 0 110 220 0 220 0 0 -110 0 -110 110 0
109 0 3 -112 3 -113 220 -2 220 -1 3 -111 3 -111 109 0 110 0 0 -110 0 -110
110 0 110 0 0 -110 0 -110 110 0 110 0 0 -110 0 -110 110 0 110 0 0 -110 0
-110 110 0 110 0 0 -220 0 -220 110 0 110 0 0 -110 0 -110 440 0 440 0 0 220
0 220 -220 0 -220 0 0 110 0 110 -110 0 -110 0 0 330 0 330 -110 0 -110 0 0
110 0 110 -110 0 -110 0 -2 222 -3 223 -107 3 -107 3 -3 107 -3 107 -107 3
-108 3 0 109 0 110 110 0 110 0 0 110 0 110 110 0 110 0 0 220 0 220 110 0
110 0 0 220 0 220 110 0 110 0 0 -110 0 -110 330 0 330 0 0 -110 0 -110 110 0
110 0 0 -110 0 -110 220 0 220 0 0 -110 0 -109 -107 -3 -108 -3 -3 -107 -3
-108 223 0 223 0 0 107 0 108 112 3 113 3 -3 217 -2 217 -222 3 -223 2 0 110
0 110 -220 0 -220 0 0 220 0 220 -110 0 -110 0 0 110 0 110 441 -2 441 -3 0
-105 0 -105 -111 -3 -111 -3 0 -109 0 -110 225 0 225 0 0 110 0 110 110 0 110
0 0 220 0 220 -335 0 -335 0 0 110 0 110 -220 0 -220 0 0 110 0 110 -220 0
-220 0 0 110 0 110 110 0 110 0 0 220 0 220 110 0 110 0 0 110 0 110 110 0
109 0 3 111 3 110 660 2 660 2 3 113 3 113 107 -2 107 -2 3 112 3 111 109 0
110 0 0 110 0 110 110 0 110 0 0 330 0 330 -220 0 -220 0 0 110 0 110 -110 0
-110 0 0 110 0 110 -330 0 -330 0 0 110 0 110 -225 0 -225 0 0 110 0 110 -220
0 -220 0 0 -110z"/>
</g>
</svg>
